<svg width="19.000000" height="19.000000" viewBox="0 0 19 19" fill="none" xmlns="http://www.w3.org/2000/svg" xmlns:xlink="http://www.w3.org/1999/xlink">
	<desc>
			Created with Pixso.
	</desc>
	<defs/>
	<path id="Vector" d="M9 -0.38C7.14 -0.38 5.33 0.17 3.79 1.2C2.25 2.23 1.04 3.69 0.33 5.41C-0.38 7.12 -0.56 9.01 -0.2 10.82C0.16 12.64 1.05 14.31 2.37 15.62C3.68 16.94 5.35 17.83 7.17 18.19C8.98 18.55 10.87 18.37 12.58 17.66C14.3 16.95 15.76 15.75 16.79 14.2C17.82 12.66 18.37 10.85 18.37 9C18.37 6.51 17.38 4.13 15.62 2.37C13.86 0.61 11.48 -0.38 9 -0.38ZM9 17.62C7.29 17.62 5.62 17.11 4.2 16.17C2.79 15.22 1.68 13.87 1.03 12.3C0.37 10.72 0.2 8.99 0.54 7.31C0.87 5.64 1.69 4.1 2.9 2.9C4.1 1.69 5.64 0.87 7.31 0.54C8.99 0.2 10.72 0.37 12.3 1.03C13.87 1.68 15.22 2.79 16.17 4.2C17.11 5.62 17.62 7.29 17.62 9C17.62 11.28 16.71 13.47 15.09 15.09C13.47 16.71 11.28 17.62 9 17.62ZM12.29 11.47C11.78 12.16 11.05 12.67 10.22 12.93C9.4 13.19 8.51 13.18 7.69 12.91C6.87 12.63 6.16 12.11 5.65 11.41C5.14 10.7 4.87 9.86 4.87 9C4.87 8.13 5.14 7.29 5.65 6.58C6.16 5.88 6.87 5.36 7.69 5.08C8.51 4.81 9.4 4.8 10.22 5.06C11.05 5.32 11.78 5.83 12.29 6.52C12.32 6.56 12.35 6.6 12.36 6.65C12.37 6.7 12.37 6.75 12.37 6.8C12.36 6.85 12.34 6.89 12.32 6.94C12.29 6.98 12.26 7.01 12.22 7.04C12.18 7.07 12.14 7.1 12.09 7.11C12.04 7.12 11.99 7.12 11.94 7.12C11.89 7.11 11.85 7.09 11.8 7.07C11.76 7.04 11.72 7.01 11.7 6.97C11.27 6.4 10.68 5.98 10 5.77C9.33 5.56 8.6 5.57 7.93 5.79C7.26 6.02 6.67 6.45 6.26 7.02C5.84 7.6 5.62 8.29 5.62 9C5.62 9.7 5.84 10.39 6.26 10.97C6.67 11.54 7.26 11.97 7.93 12.2C8.6 12.42 9.33 12.43 10 12.22C10.68 12.01 11.27 11.59 11.7 11.02C11.75 10.94 11.84 10.89 11.94 10.87C12.04 10.86 12.14 10.89 12.22 10.95C12.3 11.01 12.35 11.09 12.37 11.19C12.38 11.29 12.35 11.39 12.29 11.47Z" fill="#DEC5B1" fill-opacity="1.000000" fill-rule="nonzero"/>
</svg>
