<svg width="19.000000" height="19.000000" viewBox="0 0 19 19" fill="none" xmlns="http://www.w3.org/2000/svg" xmlns:xlink="http://www.w3.org/1999/xlink">
	<desc>
			Created with Pixso.
	</desc>
	<defs/>
	<path id="Vector" d="M9 -0.75C7.07 -0.75 5.18 -0.18 3.58 0.89C1.97 1.96 0.73 3.48 -0.01 5.26C-0.75 7.05 -0.94 9.01 -0.57 10.9C-0.19 12.79 0.74 14.53 2.1 15.89C3.46 17.25 5.2 18.18 7.09 18.56C8.98 18.93 10.94 18.74 12.73 18C14.51 17.26 16.03 16.02 17.1 14.41C18.17 12.81 18.75 10.92 18.75 9C18.74 6.41 17.71 3.93 15.89 2.1C14.06 0.28 11.58 -0.75 9 -0.75ZM9 17.25C7.36 17.25 5.77 16.76 4.41 15.85C3.05 14.95 2 13.66 1.37 12.15C0.75 10.64 0.59 8.99 0.9 7.39C1.22 5.79 2.01 4.32 3.16 3.16C4.32 2.01 5.79 1.22 7.39 0.9C8.99 0.58 10.64 0.75 12.15 1.37C13.66 2 14.95 3.05 15.85 4.41C16.76 5.77 17.25 7.36 17.25 9C17.24 11.18 16.37 13.28 14.83 14.83C13.28 16.37 11.18 17.24 9 17.25ZM15 9C15 9.19 14.92 9.38 14.78 9.53C14.63 9.67 14.44 9.75 14.25 9.75L9 9.75C8.8 9.75 8.61 9.67 8.46 9.53C8.32 9.38 8.25 9.19 8.25 9L8.25 3.75C8.25 3.55 8.32 3.36 8.46 3.21C8.61 3.07 8.8 3 9 3C9.19 3 9.38 3.07 9.53 3.21C9.67 3.36 9.75 3.55 9.75 3.75L9.75 8.25L14.25 8.25C14.44 8.25 14.63 8.32 14.78 8.46C14.92 8.61 15 8.8 15 9Z" fill="#FFF9F4" fill-opacity="1.000000" fill-rule="nonzero"/>
</svg>
